<?xml version="1.0" encoding="UTF-8"?>
<svg width="534px" height="274px" viewBox="0 0 534 274" version="1.1" xmlns="http://www.w3.org/2000/svg" xmlns:xlink="http://www.w3.org/1999/xlink">
    <title>drawkit-transport-scene-12 2</title>
    <g id="Dashboard" stroke="none" stroke-width="1" fill="none" fill-rule="evenodd">
        <g id="App-Dashboard" transform="translate(-592.000000, -154.000000)">
            <g id="drawkit-transport-scene-12" transform="translate(593.000000, 154.000000)">
                <path d="M533,243.598952 C533,109.062554 413.881815,0 266.941482,0 C120.001149,0 0.881732724,109.062554 0.881732724,243.598952 L533,243.598952 Z" id="BLUE_BACKGROUND" fill="#C7E1E9" fill-rule="nonzero"></path>
                <g id="SMALL_PLANE" transform="translate(350.872037, 110.810916)" fill-rule="nonzero">
                    <path d="M104.366292,5.25371091 C104.366292,5.5023714 104.175587,5.7094426 103.928031,5.73053692 L80.2127284,7.73271334 L78.0386615,10.6244721 C77.0021508,12.0021685 75.379194,12.8125074 73.6560577,12.8126969 L29.0950723,12.8126969 C26.4864382,12.8126969 25.27876,9.57101931 27.2484696,7.86331685 L0.379169089,5.60486185 C0.164838682,5.58574735 0,5.40623438 0,5.19087337 C0,5.08086299 0.0437481618,4.97537625 0.121586984,4.89770284 C0.199425807,4.82002942 0.304953047,4.77655748 0.414870075,4.7768849 L74.4636386,4.7768849 C76.3243629,4.77966656 78.1440241,4.22949047 79.6919864,3.19608961 L83.9613319,0.346222506 C84.2992019,0.120509266 84.69631,0 85.1025324,0 L86.0344512,0 L82.4409623,4.77934911 L103.894793,4.77934911 C104.154755,4.78269464 104.364303,4.99351477 104.366292,5.25371091 L104.366292,5.25371091 Z" id="Path" fill="#FFFFFF"></path>
                    <path d="M0.00369308917,5.19333759 L0.00369308917,5.19333759 C0.00369308917,5.40892612 0.16825474,5.58877399 0.382862295,5.60732607 L27.2484696,7.86578106 L29.0507538,6.32194903 L0.00369308917,5.19333759 Z" id="Path" fill="#D8E9F1"></path>
                    <path d="M104.366292,5.25371091 L104.366292,5.25371091 C104.366292,5.50193775 104.176331,5.7088412 103.929263,5.73053692 L58.6419466,9.55007347 L56.130567,7.34829547 L104.366292,5.25371091 Z" id="Path" fill="#D8E9F1"></path>
                    <path d="M17.9194327,8.52619125 C17.9194327,10.3743541 16.6735914,11.3021318 14.6854158,11.3021318 C13.8236679,11.3021318 13.1219588,11.1148513 12.5999858,10.7809499 C12.8022141,10.8879619 13.0273918,10.9441982 13.2561453,10.9448204 C14.2520797,10.9448204 15.0608917,9.86056483 15.0608917,8.52495914 C15.0608917,7.18935346 14.2520797,6.10509793 13.2561453,6.10509793 C13.0274647,6.10630423 12.802424,6.16250631 12.5999858,6.26896837 L12.5999858,6.26157571 C13.1194967,5.93137062 13.8138193,5.74778533 14.6854158,5.74778533 C16.7437623,5.74655434 17.9194327,6.76920444 17.9194327,8.52619125 Z" id="Path" fill="#FFFFFF"></path>
                    <ellipse id="Oval" fill="#98C8DB" cx="13.2549142" cy="8.52495914" rx="1.80597745" ry="2.41986122"></ellipse>
                    <path d="M61.4721731,8.52619125 C61.4721731,10.3743541 60.2251007,11.3021318 58.2369251,11.3021318 C57.3751772,11.3021318 56.6734682,11.1148513 56.1527262,10.7809499 C56.3541291,10.8878063 56.5784728,10.9440453 56.8064236,10.9448204 C57.8048201,10.9448204 58.6136321,9.86056483 58.6136321,8.52495914 C58.6136321,7.18935346 57.8048201,6.10509793 56.8064236,6.10509793 C56.5785463,6.10645804 56.3543398,6.16266267 56.1527262,6.26896837 L56.1527262,6.26157571 C56.671006,5.93137062 57.3665597,5.74778533 58.2369251,5.74778533 C60.2965027,5.74655434 61.4721731,6.76920444 61.4721731,8.52619125 Z" id="Path" fill="#FFFFFF"></path>
                    <ellipse id="Oval" fill="#98C8DB" cx="56.8076546" cy="8.52495914" rx="1.80597745" ry="2.41986122"></ellipse>
                    <path d="M33.7374315,7.66494737 L27.4589823,7.66494737 L29.0593713,6.32194903 L33.0197185,6.32194903 C33.3486249,6.32214814 33.641875,6.52932307 33.7522043,6.83943463 L33.944251,7.37786607 C33.9676255,7.44443186 33.9569807,7.51823227 33.9157499,7.57546378 C33.8745191,7.63269529 33.8079193,7.66611635 33.7374315,7.66494737 L33.7374315,7.66494737 Z" id="Path" fill="#98C8DB"></path>
                    <rect id="Rectangle" fill="#98C8DB" x="38.8771423" y="6.32194903" width="1" height="1.34299833" rx="0.375"></rect>
                    <rect id="Rectangle" fill="#98C8DB" x="41.3146579" y="6.32194903" width="1" height="1.34299833" rx="0.375"></rect>
                    <rect id="Rectangle" fill="#98C8DB" x="43.7509424" y="6.32194903" width="1" height="1.34299833" rx="0.375"></rect>
                    <rect id="Rectangle" fill="#98C8DB" x="46.188458" y="6.32194903" width="1" height="1.34299833" rx="0.375"></rect>
                    <rect id="Rectangle" fill="#98C8DB" x="48.6259736" y="6.32194903" width="1" height="1.34299833" rx="0.375"></rect>
                    <rect id="Rectangle" fill="#98C8DB" x="51.0634891" y="6.32194903" width="1" height="1.34299833" rx="0.375"></rect>
                </g>
                <g id="BIG_PLANE" transform="translate(3.395575, 68.287146)">
                    <path d="M401.447735,116.652349 L391.045207,128.258812 C390.116226,129.294509 388.822618,129.929937 387.435714,130.031816 L159.078668,146.816831 C161.831469,140.448486 163.4317,133.641234 163.80474,126.712515 L385.330587,126.712515 C386.868384,126.712188 388.356416,126.167017 389.530993,125.173612 L399.607288,116.648653 L401.447735,116.652349 Z" id="Path" fill="#FFFFFF" fill-rule="nonzero"></path>
                    <path d="M388.724643,129.869177 L159.078668,146.815599 C160.752097,142.954713 162.000375,138.922889 162.801419,134.791451 L388.724643,129.869177 Z" id="Path" fill="#E2EFF4" fill-rule="nonzero"></path>
                    <ellipse id="Oval" fill="#FFFFFF" fill-rule="nonzero" cx="193.778795" cy="153.558929" rx="17.8701899" ry="17.8852879"></ellipse>
                    <ellipse id="Oval" fill="#98C8DB" fill-rule="nonzero" cx="193.810803" cy="153.590964" rx="13.8101261" ry="13.8217939"></ellipse>
                    <ellipse id="Oval" stroke="#FFFFFF" stroke-width="0.625" cx="193.810803" cy="153.590964" rx="2.1826844" ry="2.18452848"></ellipse>
                    <path d="M64.149747,146.798349 L0,142.081838 C0.421025417,139.206918 0.89703856,136.348015 1.42803943,133.50513 C1.84906484,131.229015 2.3062016,128.96481 2.7994497,126.712515 L59.4285994,126.712515 C59.8024527,133.634636 61.4009619,140.435396 64.149747,146.798349 Z" id="Path" fill="#FFFFFF" fill-rule="nonzero"></path>
                    <path d="M64.149747,146.798349 L0,142.081838 C0.421025417,139.206918 0.89703856,136.348015 1.42803943,133.50513 L60.4331513,134.786523 C61.233068,138.913523 62.4792664,142.941166 64.149747,146.798349 L64.149747,146.798349 Z" id="Path" fill="#E2EFF4" fill-rule="nonzero"></path>
                    <ellipse id="Oval" fill="#FFFFFF" fill-rule="nonzero" cx="29.6970647" cy="153.558929" rx="17.8701899" ry="17.8852879"></ellipse>
                    <ellipse id="Oval" fill="#98C8DB" fill-rule="nonzero" cx="29.665057" cy="153.590964" rx="13.8101261" ry="13.8217939"></ellipse>
                    <ellipse id="Oval" stroke="#FFFFFF" stroke-width="0.625" cx="29.665057" cy="153.590964" rx="2.1826844" ry="2.18452848"></ellipse>
                    <path d="M117.270352,68.0111671 L105.966681,68.0111671 L110.537638,0.947498004 C110.608612,0.405973864 111.069736,0.00104430407 111.615439,0.00104430407 C112.161141,0.00104430407 112.622265,0.405973864 112.693239,0.947498004 L117.270352,68.0111671 Z" id="Path" fill="#FFFFFF" fill-rule="nonzero"></path>
                    <path d="M214.890388,81.0628931 L214.870691,82.6806516 L154.877031,91.980607 C153.72019,90.1609847 152.458252,88.4104692 151.097651,86.7379851 L214.890388,81.0628931 Z" id="Path" fill="#FFFFFF" fill-rule="nonzero"></path>
                    <path d="M72.1824688,86.6788439 C70.8303143,88.3417386 69.5742179,90.0806146 68.4203235,91.8869668 L9.05327754,82.6843479 L9.03358045,81.0665894 L72.1824688,86.6788439 Z" id="Path" fill="#FFFFFF" fill-rule="nonzero"></path>
                    <path d="M111.618516,67.4912172 L111.618516,0 C112.165415,-0.00187689524 112.627951,0.4045052 112.696932,0.947498004 L117.270352,68.0111671 L111.618516,67.4912172 Z" id="Path" fill="#E2EFF4" fill-rule="nonzero"></path>
                    <ellipse id="Oval" fill="#E2EFF4" fill-rule="nonzero" cx="111.618516" cy="123.359948" rx="52.2797848" ry="55.8699628"></ellipse>
                    <path d="M158.9888,99.6960709 C156.479882,125.723132 123.099461,149.251477 111.617285,149.251477 C99.4137034,149.251477 66.7103694,125.728061 64.2433082,99.7071598 C72.5751796,80.6747789 90.6571133,67.4912172 111.617285,67.4912172 C132.577457,67.4912172 150.654466,80.6747789 158.9888,99.6960709 Z" id="Path" fill="#FFFFFF" fill-rule="nonzero"></path>
                    <path d="M88.8806815,99.1083551 L88.8745262,108.430488 L78.6898967,111.723915 L85.6245054,100.89368 C86.3358099,99.7834489 87.5629229,99.1120294 88.8806815,99.1120514 L88.8806815,99.1083551 Z" id="Path" fill="#98C8DB" fill-rule="nonzero"></path>
                    <rect id="Rectangle" fill="#98C8DB" fill-rule="nonzero" x="90.3210316" y="99.1083551" width="21.4021254" height="9.31966917"></rect>
                    <rect id="Rectangle" fill="#98C8DB" fill-rule="nonzero" x="113.307542" y="99.1083551" width="21.2556282" height="9.31966917"></rect>
                    <path d="M136.104468,99.108355 L136.104468,108.424328 L146.33834,111.733772 L139.465285,100.903537 C138.755702,99.7853716 137.524006,99.1081102 136.200491,99.108355 L136.104468,99.108355 Z" id="Path" fill="#98C8DB" fill-rule="nonzero"></path>
                </g>
                <g id="CONTOURS" transform="translate(30.885334, 0.000000)" fill-rule="nonzero">
                    <polygon id="Path" fill="#FFFFFF" points="236.562118 0 236.562118 243.587863 235.544024 243.587863 235.544024 0"></polygon>
                    <path d="M472.114759,131.119761 L0,131.119761 C0.19327775,130.778467 0.389017637,130.439637 0.583526456,130.099575 L471.531232,130.099575 C471.725741,130.439637 471.921481,130.778467 472.114759,131.119761 Z" id="Path" fill="#FFFFFF"></path>
                    <path d="M37.0206911,81.9426121 L37.0206911,243.595255 L36.0025975,243.595255 L36.0025975,82.9997612 C36.3399102,82.6473782 36.6809162,82.2949951 37.0206911,81.9426121 Z" id="Path" fill="#FFFFFF"></path>
                    <path d="M103.536552,32.3206718 L103.536552,243.598952 L102.517227,243.598952 L102.517227,32.8615675 C102.857002,32.6792154 103.195546,32.5005597 103.536552,32.3206718 Z" id="Path" fill="#FFFFFF"></path>
                    <path d="M103.536552,139.77286 L103.536552,208.741368 C103.195546,208.955755 102.857002,209.163982 102.517227,209.369744 L102.517227,139.366264 C102.858233,139.496867 103.198008,139.633631 103.536552,139.77286 Z" id="Path" fill="#D8E9F1"></path>
                    <path d="M170.04995,7.55652181 L170.04995,243.598952 L169.031857,243.598952 L169.031857,7.79678298 C169.3704,7.71546382 169.7151,7.63907309 170.04995,7.55652181 Z" id="Path" fill="#FFFFFF"></path>
                    <path d="M436.108468,82.9997612 L436.108468,243.561989 L435.090375,243.561989 L435.090375,81.9426121 C435.43015,82.2949951 435.771155,82.6473782 436.108468,82.9997612 Z" id="Path" fill="#FFFFFF"></path>
                    <path d="M369.593839,32.8615675 L369.593839,243.561989 L368.575745,243.561989 L368.575745,32.3206718 C368.91552,32.5005597 369.254064,32.6792154 369.593839,32.8615675 Z" id="Path" fill="#FFFFFF"></path>
                    <path d="M303.08044,7.79678298 L303.08044,243.561989 L302.061116,243.561989 L302.061116,7.55652181 C302.402122,7.63907309 302.740665,7.71546382 303.08044,7.79678298 Z" id="Path" fill="#FFFFFF"></path>
                    <rect id="Rectangle" fill="#D8E9F1" x="368.575745" y="115.589033" width="1.01809363" height="8.18243296"></rect>
                </g>
                <g id="FLOOR" transform="translate(0.000000, 243.598952)">
                    <rect id="Rectangle" fill="#FFFFFF" fill-rule="nonzero" x="0.881732724" y="0" width="532.118267" height="19.3009806"></rect>
                    <line x1="0.299437337" y1="19.6656848" x2="530.089754" y2="19.6656848" id="Path" stroke="#D8E9F1" stroke-width="0.625" stroke-linecap="round"></line>
                    <path d="M530.45415,19.6656848 C530.45415,19.8698272 530.2888,20.0353173 530.08483,20.0353173 L0.305592679,20.0353173 C0.128899673,20.0043377 0,19.8507646 0,19.6712293 C0,19.4916939 0.128899673,19.3381208 0.305592679,19.3071412 L530.095909,19.3071412 C530.291317,19.3129254 530.448371,19.4701126 530.45415,19.6656848 Z" id="Path" fill="#D8E9F1" fill-rule="nonzero"></path>
                    <polygon id="Path" fill="#D8E9F1" fill-rule="nonzero" points="267.586562 0 224.598882 19.3009806 222.978796 20.0291568 221.202364 20.0291568 222.82245 19.3009806 265.807668 0"></polygon>
                    <polygon id="Path" fill="#D8E9F1" fill-rule="nonzero" points="67.9688091 0 25.1731758 19.3009806 23.559245 20.0291568 21.7889686 20.0291568 23.4028993 19.3009806 66.1985326 0"></polygon>
                    <polygon id="Path" fill="#D8E9F1" fill-rule="nonzero" points="134.584386 0 91.5843956 19.3009806 89.9630784 20.0291568 88.1841845 20.0291568 89.8055016 19.3009806 132.80303 0"></polygon>
                    <polygon id="Path" fill="#D8E9F1" fill-rule="nonzero" points="201.076857 0 157.772792 19.3009806 156.139164 20.0291568 154.350422 20.0291568 155.982818 19.3009806 199.288114 0"></polygon>
                    <polygon id="Path" fill="#D8E9F1" fill-rule="nonzero" points="469.133399 0 426.026305 19.3009806 424.400064 20.0291568 422.617477 20.0291568 424.243718 19.3009806 467.349581 0"></polygon>
                    <polygon id="Path" fill="#D8E9F1" fill-rule="nonzero" points="532.741476 0 489.036083 19.3009806 487.387682 20.0291568 485.586629 20.0291568 487.236261 19.3009806 530.939191 0"></polygon>
                    <polygon id="Path" fill="#D8E9F1" fill-rule="nonzero" points="400.489021 0 357.368385 19.3009806 355.742144 20.0291568 353.959557 20.0291568 355.587029 19.3009806 398.703971 0"></polygon>
                    <path d="M422.618708,20.0291568 L424.400064,20.0291568 L401.307681,30.3690118 C401.261337,30.3902682 401.210932,30.4011984 401.159953,30.4010482 C400.993729,30.3917074 400.854298,30.2722138 400.819493,30.1092695 C400.784688,29.9463251 400.863115,29.7802184 401.010994,29.7036732 L422.618708,20.0291568 Z" id="Path" fill="#D8E9F1" fill-rule="nonzero"></path>
                    <polygon id="Path" fill="#D8E9F1" fill-rule="nonzero" points="334.066721 0 290.968245 19.3009806 289.342004 20.0291568 287.559417 20.0291568 289.184427 19.3009806 332.282903 0"></polygon>
                </g>
                <g id="ESCALATOR" transform="translate(398.018266, 130.582562)">
                    <path d="M114.335484,18.7674776 L52.0643478,85.9654465 L40.4245954,85.9654465 C36.8397424,85.9651197 33.4016038,87.3901711 30.8666145,89.9270711 C28.3316252,92.4639711 26.9074636,95.9048846 26.9074636,99.4927664 C26.9074636,103.227287 28.4204467,106.762207 30.8653487,109.204246 C32.710398,111.053898 35.0522782,112.327698 37.6066797,112.871001 C37.8725905,112.927678 38.1421945,112.976963 38.4142606,113.01639 L38.4425752,113.01639 L13.5159008,113.01639 C13.3927939,113.01639 13.2696871,113.01639 13.1551977,113.01639 C9.69601653,112.92706 6.40354453,111.510145 3.9591162,109.058857 C1.51298315,106.609425 0,103.081899 0,99.3461455 C0,91.8754948 6.05155648,85.8195059 13.5159008,85.8188256 L25.1593464,85.8188256 L104.67529,0 C108.175628,6.10797285 111.395693,12.3637987 114.335484,18.7674776 Z" id="Path" fill="#98C8DB" fill-rule="nonzero"></path>
                    <path d="M69.1429607,113.01639 L69.005081,113.166713 L40.4245954,113.166713 C39.7516591,113.166713 39.0796379,113.117057 38.4142606,113.01639 C38.1421945,112.976963 37.8725905,112.927678 37.6066797,112.871001 C35.0522782,112.327698 32.710398,111.053898 30.8653487,109.204246 C28.4204467,106.756046 26.9074636,103.227287 26.9074636,99.4927664 C26.9074636,95.9048846 28.3316252,92.4639711 30.8666145,89.9270711 C33.4016038,87.3901711 36.8397424,85.9651197 40.4245954,85.9654465 L52.0655789,85.9654465 L114.459822,18.6442668 C119.216943,29.0065299 123.190096,39.7115994 126.345788,50.6692325 L69.1429607,113.01639 Z" id="Path" fill="#FFFFFF" fill-rule="nonzero"></path>
                    <path d="M113.303849,16.5570749 L50.6055317,84.2170845 L39.823834,84.2170845 C31.4746578,84.2170845 24.7063132,90.9911474 24.7063132,99.3473776 L24.7063132,99.3473776 C24.7063132,105.50792 28.3847458,110.929198 33.6623363,113.289918" id="Path" stroke="#FFFFFF" stroke-width="0.5" stroke-linecap="round"></path>
                </g>
                <g id="PLANT" transform="translate(486.567790, 172.177315)">
                    <path d="M10.8001637,0 C10.8001637,0 1.09195773,20.519536 9.37951069,47.4435723 L15.7244376,47.4435723 C15.7244376,47.4435723 20.6487115,17.7793266 10.8001637,0 Z" id="Path" fill="#A74602" fill-rule="nonzero"></path>
                    <path d="M12.279908,25.7609258 C12.6307625,33.264467 13.0000831,41.06125 13.3016948,47.1380094 C13.3093612,47.2988869 13.1854316,47.4356002 13.0247044,47.4435725 L13.0099316,47.4435725 C12.8552974,47.4435725 12.7278686,47.3221753 12.7206305,47.16758 C12.2466692,37.6236671 11.6065136,23.8400686 11.1362454,13.6123354 L7.92684989,8.88966328 C7.98840331,8.63092048 8.04995674,8.37710612 8.11151016,8.12822019 L11.0857716,12.5022056 C10.8210919,6.74702649 10.6179656,2.27570451 10.5428704,0.590180001 C10.7053714,0.200833696 10.8001637,0 10.8001637,0 C10.9109599,0.199601587 11.0180628,0.400435283 11.1263968,0.603733196 C11.2495037,3.42279759 11.7173097,13.6492987 12.2343585,24.7259546 L16.2217893,18.1957793 C16.2620042,18.5046278 16.3005776,18.8142977 16.3375097,19.1247891 L12.3008362,25.7375158 C12.2949923,25.7462634 12.2879471,25.754144 12.279908,25.7609258 L12.279908,25.7609258 Z" id="Path" fill="#FFC200" fill-rule="nonzero"></path>
                    <path d="M5.51149355,47.4435723 C5.51149355,47.4435723 0.044318465,40.2320409 2.62094478,25.1091404 C2.62094478,25.1091404 11.4932553,34.3055987 10.1686256,47.4435723 L5.51149355,47.4435723 Z" id="Path" stroke="#FFC200" stroke-width="0.5" stroke-linecap="round"></path>
                    <path d="M23.4789379,16.1073552 C23.4789379,16.1073552 25.3624727,33.4036952 18.0265356,47.4435723 L12.6898538,47.4435723 C12.6898538,47.4435723 13.0505569,29.1812592 23.4789379,16.1073552 Z" id="Path" fill="#F5BBBB" fill-rule="nonzero"></path>
                    <path d="M18.3638484,47.4435723 C18.3638484,47.4435723 24.0082973,41.6526621 24.5868995,36.624427 C24.5868995,36.624427 15.7232065,40.6509578 15.7232065,47.4435723 L18.3638484,47.4435723 Z" id="Path" fill="#A74602" fill-rule="nonzero"></path>
                    <polygon id="Path" fill="#FFFFFF" fill-rule="nonzero" points="17.0786129 71.5054204 6.61699304 71.5054204 5.03876325 47.1527947 18.6580738 47.1527947"></polygon>
                    <ellipse id="Oval" stroke="#FFC200" stroke-width="0.5" stroke-linecap="round" cx="19.0101593" cy="17.0733283" rx="1" ry="1"></ellipse>
                    <ellipse id="Oval" stroke="#FFC200" stroke-width="0.5" stroke-linecap="round" cx="0.965157682" cy="44.6121868" rx="1" ry="1"></ellipse>
                </g>
                <g id="SEAT" transform="translate(141.285092, 195.042785)">
                    <path d="M46.0542715,28.610793 L10.9577405,28.610793 C14.78736,28.610793 18.2088578,26.2157379 19.5222838,22.6153528 L27.4946832,0.423845445 L35.814244,22.1089561 C37.1278159,25.7086861 40.5485018,28.1036143 44.3775563,28.1043964 L45.7169588,28.1043964 L46.0542715,28.610793 Z" id="Path" stroke="#A74602" stroke-width="0.875" fill="#A74602" fill-rule="nonzero" stroke-linecap="round" stroke-linejoin="round"></path>
                    <path d="M138.010162,28.0982359 L44.3787873,28.0982359 C40.5491678,28.0982359 37.1276701,25.7031808 35.814244,22.1027956 L27.7532076,0.0209459446 L107.034017,0.0209459446 C108.839135,0.0209459446 110.451749,1.15028114 111.070691,2.84740299 L118.100092,22.1027956 C118.55683,23.3572395 119.283479,24.4958757 120.228609,25.4381135 C121.425767,26.0857376 122.765328,26.4245104 124.126172,26.4238003 L136.31375,26.4238003 C137.241248,26.4230694 137.996344,27.1700087 138.006469,28.0982359 L138.010162,28.0982359 Z" id="Path" fill="#F3B304" fill-rule="nonzero"></path>
                    <path d="M27.2792463,0 L18.9880001,22.7139214 C17.808005,25.9475865 14.7347234,28.0985846 11.2950532,28.0982359 L0,28.0982359 C0.0107895192,27.1702908 0.76549466,26.4237375 1.69271915,26.4238003 L9.62203117,26.4238003 C13.0618153,26.4245111 16.1352837,24.2733823 17.3149781,21.0394859 L24.2089615,2.14756532 C24.6791822,0.857714988 25.9049191,-0.000336600761 27.2767841,0 L27.2792463,0 Z" id="Path" fill="#F3B304" fill-rule="nonzero"></path>
                    <line x1="137.756562" y1="28.610793" x2="42.9248955" y2="28.610793" id="Path" stroke="#A74602" stroke-width="0.875" stroke-linecap="round"></line>
                    <path d="M85.8941094,28.610793 C82.0648054,28.6110792 78.643401,26.2164845 77.329566,22.6165849 L69.2685297,0.533503107" id="Path" stroke="#A74602" stroke-width="0.875" stroke-linecap="round"></path>
                    <path d="M106.652386,28.610793 C102.822859,28.610793 99.4012023,26.216446 98.0866116,22.6165849 L90.0268063,0.533503107" id="Path" stroke="#A74602" stroke-width="0.875" stroke-linecap="round"></path>
                    <path d="M65.1370639,28.610793 C61.3075366,28.610793 57.8858802,26.216446 56.5712895,22.6165849 L48.5114842,0.533503107" id="Path" stroke="#A74602" stroke-width="0.875" stroke-linecap="round"></path>
                    <path d="M9.08774746,52.523556 C9.08774746,39.7675361 17.2521936,29.4264489 27.3247958,29.4264489 C37.397398,29.4264489 45.5630752,39.7675361 45.5630752,52.523556" id="Path" stroke="#A74602" stroke-width="0.875"></path>
                    <path d="M98.0398309,52.523556 C98.0398309,39.7675361 106.205508,29.4264489 116.27811,29.4264489 C126.350713,29.4264489 134.51639,39.7675361 134.51639,52.523556" id="Path" stroke="#A74602" stroke-width="0.875"></path>
                </g>
                <g id="SIGNAGE" transform="translate(138.521582, 12.215124)">
                    <path d="M99.1192391,91.9584226 L19.469109,91.9584226 C18.3829498,91.9584226 17.4068968,91.2946927 17.0069721,90.283987 L0.185652483,47.75776 C-0.136887031,46.9418723 -0.034845487,46.0190777 0.458144916,45.2935228 C0.951135319,44.5679679 1.77110197,44.1341285 2.64778943,44.1341285 L82.2979195,44.1341285 C83.3839733,44.1341285 84.3598518,44.7980831 84.7600565,45.8085642 L101.577683,88.3347913 C101.899982,89.1500709 101.798346,90.0721425 101.306229,90.7975007 C100.814112,91.5228589 99.995273,91.9575237 99.1192391,91.9584226 Z" id="Path" fill="#FFFFFF" fill-rule="nonzero"></path>
                    <line x1="37.34053" y1="91.5037745" x2="18.7427786" y2="44.477887" id="Path" stroke="#D8E9F1" stroke-width="0.625" stroke-linecap="round"></line>
                    <path d="M1.08063926,41.6588226 L84.3341068,41.6588226 C85.2462928,41.6588226 86.0661005,42.2159728 86.4023018,43.0646585 L104.759995,89.4831165" id="Path" stroke="#A74602" stroke-width="0.625" stroke-linecap="round"></path>
                    <line x1="44.028925" y1="41.6588226" x2="44.028925" y2="1.01895378" id="Path" stroke="#A74602" stroke-width="0.625" stroke-linecap="round"></line>
                    <line x1="5.24657497" y1="59.9950622" x2="90.0868898" y2="59.9950622" id="Path" stroke="#D8E9F1" stroke-width="0.625" stroke-linecap="round"></line>
                    <line x1="11.5028649" y1="75.9163691" x2="96.4884458" y2="75.9163691" id="Path" stroke="#D8E9F1" stroke-width="0.625" stroke-linecap="round"></line>
                    <line x1="16.2831038" y1="52.5666797" x2="8.4978268" y2="52.5666797" id="Path" stroke="#F3B304" stroke-width="0.625" stroke-linecap="round"></line>
                    <line x1="58.7734321" y1="50.0457856" x2="26.8801412" y2="50.0457856" id="Path" stroke="#F3B304" stroke-width="0.625" stroke-linecap="round"></line>
                    <line x1="64.5582229" y1="64.895158" x2="32.664932" y2="64.895158" id="Path" stroke="#F3B304" stroke-width="0.625" stroke-linecap="round"></line>
                    <line x1="65.8680797" y1="68.6814276" x2="33.9747888" y2="68.6814276" id="Path" stroke="#F3B304" stroke-width="0.625" stroke-linecap="round"></line>
                    <line x1="77.361335" y1="80.6341128" x2="38.1936605" y2="80.6341128" id="Path" stroke="#F3B304" stroke-width="0.625" stroke-linecap="round"></line>
                    <line x1="71.1062761" y1="84.4203824" x2="39.5035173" y2="84.4203824" id="Path" stroke="#F3B304" stroke-width="0.625" stroke-linecap="round"></line>
                    <line x1="70.7874293" y1="53.8308231" x2="28.3352642" y2="53.8308231" id="Path" stroke="#F3B304" stroke-width="0.625" stroke-linecap="round"></line>
                    <polyline id="Path" stroke="#F3B304" stroke-width="0.625" stroke-linecap="round" stroke-linejoin="round" points="12.22304 55.6198447 7.79242457 52.468111 11.1126162 49.3176094"></polyline>
                    <line x1="22.0974402" y1="68.1442283" x2="14.3109321" y2="68.1442283" id="Path" stroke="#F3B304" stroke-width="0.625" stroke-linecap="round"></line>
                    <polyline id="Path" stroke="#F3B304" stroke-width="0.625" stroke-linecap="round" stroke-linejoin="round" points="18.0361453 71.1973933 13.6055299 68.0456596 16.9269526 64.895158"></polyline>
                    <line x1="27.9413222" y1="83.883183" x2="20.1548142" y2="83.883183" id="Path" stroke="#F3B304" stroke-width="0.625" stroke-linecap="round"></line>
                    <polyline id="Path" stroke="#F3B304" stroke-width="0.625" stroke-linecap="round" stroke-linejoin="round" points="23.8812584 86.9363481 19.4494119 83.7858465 22.7708347 80.6341128"></polyline>
                    <line x1="76.4564996" y1="50.0457856" x2="80.6532121" y2="50.0457856" id="Path" stroke="#F3B304" stroke-width="0.625" stroke-linecap="round"></line>
                    <line x1="77.9103915" y1="53.8308231" x2="82.108335" y2="53.8308231" id="Path" stroke="#F3B304" stroke-width="0.625" stroke-linecap="round"></line>
                    <line x1="81.2355075" y1="64.895158" x2="85.4322199" y2="64.895158" id="Path" stroke="#F3B304" stroke-width="0.625" stroke-linecap="round"></line>
                    <line x1="82.6893993" y1="68.6814276" x2="86.8873428" y2="68.6814276" id="Path" stroke="#F3B304" stroke-width="0.625" stroke-linecap="round"></line>
                    <line x1="86.5968106" y1="80.6341128" x2="90.7935231" y2="80.6341128" id="Path" stroke="#F3B304" stroke-width="0.625" stroke-linecap="round"></line>
                    <line x1="88.0519336" y1="84.4203824" x2="92.248646" y2="84.4203824" id="Path" stroke="#F3B304" stroke-width="0.625" stroke-linecap="round"></line>
                    <path d="M156.378696,92.1038116 L236.028826,92.1038116 C237.114985,92.1038116 238.091038,91.4400815 238.490963,90.4293758 L255.30982,47.9031488 C255.63236,47.0872612 255.530318,46.1644665 255.037328,45.4389116 C254.544338,44.7133567 253.724371,44.2795173 252.847683,44.2795173 L173.197553,44.2795173 C172.111289,44.2795173 171.135061,44.9430226 170.735416,45.9539531 L153.916559,88.4801801 C153.594019,89.2960677 153.696061,90.2188624 154.189051,90.9444173 C154.682042,91.6699722 155.502008,92.1038116 156.378696,92.1038116 L156.378696,92.1038116 Z" id="Path" fill="#FFFFFF" fill-rule="nonzero"></path>
                    <line x1="218.157405" y1="91.6491633" x2="236.755156" y2="44.6232758" id="Path" stroke="#D8E9F1" stroke-width="0.625" stroke-linecap="round"></line>
                    <path d="M254.416065,41.8042114 L171.162597,41.8042114 C170.250755,41.8042114 169.431389,42.3615549 169.095633,43.2100473 L150.73794,89.6285053" id="Path" stroke="#A74602" stroke-width="0.625" stroke-linecap="round"></path>
                    <line x1="211.467779" y1="41.8042114" x2="211.467779" y2="0" id="Path" stroke="#A74602" stroke-width="0.625" stroke-linecap="round"></line>
                    <line x1="250.250129" y1="60.140451" x2="165.411045" y2="60.140451" id="Path" stroke="#D8E9F1" stroke-width="0.625" stroke-linecap="round"></line>
                    <line x1="243.99507" y1="76.0617579" x2="159.009489" y2="76.0617579" id="Path" stroke="#D8E9F1" stroke-width="0.625" stroke-linecap="round"></line>
                    <line x1="239.2136" y1="52.7120685" x2="247.000108" y2="52.7120685" id="Path" stroke="#F3B304" stroke-width="0.625" stroke-linecap="round"></line>
                    <line x1="224.077613" y1="50.1911744" x2="228.616563" y2="50.1911744" id="Path" stroke="#F3B304" stroke-width="0.625" stroke-linecap="round"></line>
                    <line x1="169.11533" y1="65.0405468" x2="209.876007" y2="65.0405468" id="Path" stroke="#F3B304" stroke-width="0.625" stroke-linecap="round"></line>
                    <line x1="167.805473" y1="68.8268164" x2="186.110231" y2="68.8268164" id="Path" stroke="#F3B304" stroke-width="0.625" stroke-linecap="round"></line>
                    <line x1="162.422011" y1="80.7795016" x2="201.589686" y2="80.7795016" id="Path" stroke="#F3B304" stroke-width="0.625" stroke-linecap="round"></line>
                    <line x1="161.403917" y1="84.5657712" x2="193.006676" y2="84.5657712" id="Path" stroke="#F3B304" stroke-width="0.625" stroke-linecap="round"></line>
                    <line x1="173.243103" y1="53.9762119" x2="209.876007" y2="53.9762119" id="Path" stroke="#F3B304" stroke-width="0.625" stroke-linecap="round"></line>
                    <polyline id="Path" stroke="#F3B304" stroke-width="0.625" stroke-linecap="round" stroke-linejoin="round" points="243.273664 55.7652335 247.704279 52.6134998 244.384088 49.4629982"></polyline>
                    <line x1="233.400495" y1="68.2896171" x2="241.185772" y2="68.2896171" id="Path" stroke="#F3B304" stroke-width="0.625" stroke-linecap="round"></line>
                    <polyline id="Path" stroke="#F3B304" stroke-width="0.625" stroke-linecap="round" stroke-linejoin="round" points="237.460559 71.3427821 241.891174 68.1922805 238.570982 65.0405468"></polyline>
                    <line x1="227.555382" y1="84.0285719" x2="235.34189" y2="84.0285719" id="Path" stroke="#F3B304" stroke-width="0.625" stroke-linecap="round"></line>
                    <polyline id="Path" stroke="#F3B304" stroke-width="0.625" stroke-linecap="round" stroke-linejoin="round" points="231.615446 87.0817369 236.047292 83.9312353 232.725869 80.7795016"></polyline>
                    <line x1="216.522546" y1="50.1911744" x2="174.843492" y2="50.1911744" id="Path" stroke="#F3B304" stroke-width="0.625" stroke-linecap="round"></line>
                    <line x1="227.016174" y1="53.9762119" x2="222.964727" y2="53.9762119" id="Path" stroke="#F3B304" stroke-width="0.625" stroke-linecap="round"></line>
                    <line x1="222.831772" y1="65.0405468" x2="218.63506" y2="65.0405468" id="Path" stroke="#F3B304" stroke-width="0.625" stroke-linecap="round"></line>
                    <line x1="221.376649" y1="68.8268164" x2="217.179937" y2="68.8268164" id="Path" stroke="#F3B304" stroke-width="0.625" stroke-linecap="round"></line>
                    <line x1="217.303043" y1="80.7795016" x2="213.106331" y2="80.7795016" id="Path" stroke="#F3B304" stroke-width="0.625" stroke-linecap="round"></line>
                    <line x1="215.847921" y1="84.5657712" x2="211.651208" y2="84.5657712" id="Path" stroke="#F3B304" stroke-width="0.625" stroke-linecap="round"></line>
                </g>
            </g>
        </g>
    </g>
</svg>