<?xml version="1.0" encoding="UTF-8"?>
<svg width="346px" height="195px" viewBox="0 0 346 195" version="1.1" xmlns="http://www.w3.org/2000/svg" xmlns:xlink="http://www.w3.org/1999/xlink">
    <title>Group 29</title>
    <g id="Travel-App---Workspace" stroke="none" stroke-width="1" fill="none" fill-rule="evenodd">
        <g id="Group-29" transform="translate(1.000000, -0.000000)">
            <rect id="Rectangle" fill="#FAF6E9" x="0" y="0" width="344" height="194"></rect>
            <g id="Group-28">
                <rect id="Rectangle" fill="#F1F6F8" x="0" y="0" width="344" height="161"></rect>
                <g id="drawkit-transport-scene-3" transform="translate(0.000000, 75.000000)">
                    <g id="MOUNTAIN" transform="translate(7.685627, 10.062337)">
                        <path d="M99.1756493,32.8021034 L143.724368,2.35561812 C148.843617,-1.14300564 155.328899,-0.712876485 160.054636,3.43544026 L242.871202,76.2046547 L0,76.2046547 L78.4915436,29.0812163 C82.4851878,26.6831112 87.2352382,26.5391349 91.33604,28.6915804 L99.1756493,32.8021034 Z" id="Path" stroke="#7EBAD2" stroke-width="0.5"></path>
                        <path d="M99.6565074,32.7283156 L81.5567894,44.7863295 C81.3649085,44.9146134 81.111162,44.9001845 80.9350824,44.7509771 C80.7590028,44.6017697 80.703291,44.3539679 80.7985823,44.1438354 L88.1006029,27.4173903 L99.6565074,32.7283156 Z" id="Path" fill="#7EBAD2" fill-rule="nonzero"></path>
                    </g>
                    <g id="WATER" transform="translate(0.000000, 86.267891)" stroke="#59221D" stroke-linecap="round" stroke-width="0.5">
                        <path d="M344,0 C330.268527,0.397734491 308.900054,3.52831887 296.313996,9.07320559 L278.183662,17.0620898 C265.075679,22.8379488 250.907058,25.8207725 236.581325,25.8203472 L164.10321,25.8203472 C155.099178,25.8200749 146.132788,26.9814853 137.426387,29.2757781 L137.426387,29.2757781 C128.719728,31.5704217 119.753034,32.7321088 110.748663,32.7321088 L48.7593798,32.7321088 C31.1780261,32.7333168 14.8346997,23.6887733 5.507357,8.79605124 L0,0 L344,0 Z" id="Path" fill="#BEE0EE"></path>
                        <path d="M19.1694925,5.39461148 C19.9775135,4.59096239 21.2835404,4.59096239 22.0915614,5.39461148 L22.0915614,5.39461148 C22.8995824,6.19826056 24.2056093,6.19826056 25.0136303,5.39461148 L25.0136303,5.39461148 C25.8216513,4.59096239 27.1276782,4.59096239 27.9356992,5.39461148 L27.9501069,5.40810925 C28.7581279,6.21175834 30.0641549,6.21175834 30.8721758,5.40810925 L30.9144986,5.36671607 C31.3018059,4.97915281 31.8274243,4.76137762 32.375533,4.76137762 C32.9236418,4.76137762 33.4492602,4.97915281 33.8365675,5.36671607 L33.8788902,5.40810925 C34.6869112,6.21175834 35.9929381,6.21175834 36.8009591,5.40810925 L36.8288741,5.38021385 C37.6368951,4.57656476 38.942922,4.57656476 39.750943,5.38021385 L39.778858,5.40810925 C40.5869836,6.2123556 41.8937019,6.2123556 42.7018274,5.40810925 L42.7153347,5.39461148 C43.5233557,4.59096239 44.8293826,4.59096239 45.6374036,5.39461148" id="Path"></path>
                        <path d="M45.6536123,5.40810925 C46.4616333,6.21175834 47.7676602,6.21175834 48.5756812,5.40810925 L48.5900889,5.39461148 C49.3981099,4.59096239 50.7041368,4.59096239 51.5121578,5.39461148" id="Path"></path>
                        <path d="M27.9347987,8.05997248 L27.9492064,8.0743701 C28.7572274,8.87801919 30.0632544,8.87801919 30.8712754,8.0743701 L30.9135981,8.03207707 C31.7216191,7.22842798 33.027646,7.22842798 33.835667,8.03207707 L33.8779897,8.0743701 C34.6860107,8.87801919 35.9920376,8.87801919 36.8000586,8.0743701 L36.8279736,8.04557485 C37.6359946,7.24192576 38.9420215,7.24192576 39.7500425,8.04557485 L39.7779575,8.0743701 C40.5860831,8.87861645 41.8928014,8.87861645 42.7009269,8.0743701 L42.7144342,8.05997248 C43.5224552,7.25632339 44.8284821,7.25632339 45.6365031,8.05997248" id="Path"></path>
                        <path d="M231.143305,11.3588291 L231.143305,11.3588291 C231.951326,12.1624782 233.257353,12.1624782 234.065374,11.3588291 L234.065374,11.3588291 C234.8735,10.5545828 236.180218,10.5545828 236.988343,11.3588291 L237.001851,11.3732268 C237.809872,12.1768759 239.115899,12.1768759 239.92392,11.3732268 L239.966242,11.3309337 C240.774263,10.5272846 242.08029,10.5272846 242.888311,11.3309337 L242.930634,11.3732268 C243.738655,12.1768759 245.044682,12.1768759 245.852703,11.3732268 L245.880618,11.3444315 C246.688639,10.5407824 247.994666,10.5407824 248.802687,11.3444315 L248.831502,11.3732268 C249.639523,12.1768759 250.94555,12.1768759 251.753571,11.3732268 L251.767078,11.3588291 C252.575204,10.5545828 253.881922,10.5545828 254.690048,11.3588291" id="Path"></path>
                        <path d="M236.984742,14.0241901 L236.998249,14.0385878 C237.80627,14.8422369 239.112297,14.8422369 239.920318,14.0385878 L239.96264,13.9962947 C240.770661,13.1926456 242.076688,13.1926456 242.884709,13.9962947 L242.927032,14.0385878 C243.735053,14.8422369 245.04108,14.8422369 245.849101,14.0385878 L245.877016,14.0106924 C246.685037,13.2070433 247.991064,13.2070433 248.799085,14.0106924 L248.8279,14.0385878 C249.635921,14.8422369 250.941948,14.8422369 251.749969,14.0385878 L251.763476,14.0241901" id="Path"></path>
                    </g>
                    <g id="BRIDGE" transform="translate(0.000000, 43.732797)" stroke="#59221D" stroke-linecap="round" stroke-width="0.5">
                        <line x1="111.136371" y1="8.52159644" x2="111.136371" y2="33.8821194" id="Path"></line>
                        <line x1="107.536238" y1="12.1093055" x2="107.536238" y2="33.8821194" id="Path"></line>
                        <line x1="103.936105" y1="14.6207919" x2="103.936105" y2="33.8821194" id="Path"></line>
                        <line x1="100.336873" y1="16.5041817" x2="100.336873" y2="33.8821194" id="Path"></line>
                        <line x1="96.7367398" y1="18.0294304" x2="96.7367398" y2="33.8821194" id="Path"></line>
                        <line x1="93.1366068" y1="19.1056532" x2="93.1366068" y2="33.8821194" id="Path"></line>
                        <line x1="89.5373743" y1="19.9128202" x2="89.5373743" y2="33.8821194" id="Path"></line>
                        <line x1="117.182217" y1="7.70003176" x2="117.182217" y2="33.8821194" id="Path"></line>
                        <line x1="120.78145" y1="10.7262333" x2="120.78145" y2="33.7921342" id="Path"></line>
                        <line x1="124.381583" y1="13.0262545" x2="124.381583" y2="33.7921342" id="Path"></line>
                        <line x1="127.981716" y1="14.9321406" x2="127.981716" y2="33.7921342" id="Path"></line>
                        <line x1="131.580948" y1="16.5473746" x2="131.580948" y2="33.7921342" id="Path"></line>
                        <line x1="135.181081" y1="17.8674571" x2="135.181081" y2="33.7921342" id="Path"></line>
                        <line x1="138.781214" y1="18.9931717" x2="138.781214" y2="33.7921342" id="Path"></line>
                        <line x1="142.38675" y1="19.9668113" x2="142.38675" y2="33.7921342" id="Path"></line>
                        <line x1="145.986883" y1="20.6569977" x2="145.986883" y2="33.7921342" id="Path"></line>
                        <line x1="149.587016" y1="21.4227715" x2="149.587016" y2="33.7921342" id="Path"></line>
                        <line x1="153.192552" y1="21.9464853" x2="153.192552" y2="33.7921342" id="Path"></line>
                        <line x1="156.792685" y1="22.4567012" x2="156.792685" y2="33.7921342" id="Path"></line>
                        <line x1="160.392818" y1="22.7725492" x2="160.392818" y2="33.7921342" id="Path"></line>
                        <line x1="163.998354" y1="23.0263074" x2="163.998354" y2="33.7921342" id="Path"></line>
                        <line x1="167.598487" y1="23.2665679" x2="167.598487" y2="33.7921342" id="Path"></line>
                        <line x1="171.19862" y1="23.3124603" x2="171.19862" y2="33.7921342" id="Path"></line>
                        <line x1="85.9372413" y1="20.6300021" x2="85.9372413" y2="33.8821194" id="Path"></line>
                        <line x1="82.3371083" y1="20.989043" x2="82.3371083" y2="33.8821194" id="Path"></line>
                        <line x1="78.7378758" y1="21.2580987" x2="78.7378758" y2="33.8821194" id="Path"></line>
                        <line x1="75.1377429" y1="21.4371692" x2="75.1377429" y2="33.8821194" id="Path"></line>
                        <line x1="71.5376099" y1="21.4371692" x2="71.5376099" y2="33.8821194" id="Path"></line>
                        <line x1="67.9383774" y1="20.989043" x2="67.9383774" y2="33.8821194" id="Path"></line>
                        <line x1="64.3382444" y1="20.3609464" x2="64.3382444" y2="33.8821194" id="Path"></line>
                        <line x1="60.7381114" y1="19.4637942" x2="60.7381114" y2="33.8821194" id="Path"></line>
                        <line x1="57.1388789" y1="18.2984861" x2="57.1388789" y2="33.8821194" id="Path"></line>
                        <line x1="53.5387459" y1="16.8632225" x2="53.5387459" y2="33.8821194" id="Path"></line>
                        <line x1="49.938613" y1="14.9798327" x2="49.938613" y2="33.8821194" id="Path"></line>
                        <line x1="46.3393805" y1="12.7374021" x2="46.3393805" y2="33.8821194" id="Path"></line>
                        <line x1="40.1692676" y1="14.9798327" x2="40.1692676" y2="33.75704" id="Path"></line>
                        <line x1="36.5691346" y1="18.626932" x2="36.5691346" y2="33.75704" id="Path"></line>
                        <line x1="32.9699022" y1="21.5280542" x2="32.9699022" y2="33.75704" id="Path"></line>
                        <line x1="29.3697692" y1="24.0080457" x2="29.3697692" y2="33.75704" id="Path"></line>
                        <line x1="25.7696362" y1="26.1973851" x2="25.7696362" y2="33.75704" id="Path"></line>
                        <line x1="22.1704037" y1="28.1158692" x2="22.1704037" y2="33.75704" id="Path"></line>
                        <line x1="18.5702707" y1="29.670813" x2="18.5702707" y2="33.75704" id="Path"></line>
                        <line x1="14.9701377" y1="31.1780648" x2="14.9701377" y2="33.75704" id="Path"></line>
                        <line x1="11.3709053" y1="32.1733009" x2="11.3709053" y2="33.75704" id="Path"></line>
                        <line x1="232.259504" y1="4.98427906" x2="232.259504" y2="33.8434258" id="Path"></line>
                        <line x1="235.904662" y1="8.93102901" x2="235.904662" y2="33.8434258" id="Path"></line>
                        <line x1="239.549819" y1="11.9806267" x2="239.549819" y2="33.8434258" id="Path"></line>
                        <line x1="243.194976" y1="14.4021279" x2="243.194976" y2="33.8434258" id="Path"></line>
                        <line x1="246.840133" y1="16.3755029" x2="246.840133" y2="33.8434258" id="Path"></line>
                        <line x1="250.48529" y1="17.9007516" x2="250.48529" y2="33.8434258" id="Path"></line>
                        <line x1="254.130447" y1="19.2460301" x2="254.130447" y2="33.8434258" id="Path"></line>
                        <line x1="257.775605" y1="20.1422824" x2="257.775605" y2="33.8434258" id="Path"></line>
                        <line x1="261.419861" y1="20.770379" x2="261.419861" y2="33.8434258" id="Path"></line>
                        <line x1="265.065018" y1="21.219405" x2="265.065018" y2="33.8434258" id="Path"></line>
                        <line x1="268.710175" y1="21.3984755" x2="268.710175" y2="33.8434258" id="Path"></line>
                        <line x1="272.355333" y1="21.3984755" x2="272.355333" y2="33.8434258" id="Path"></line>
                        <line x1="276.00049" y1="20.9503494" x2="276.00049" y2="33.8434258" id="Path"></line>
                        <line x1="279.645647" y1="20.2322676" x2="279.645647" y2="33.8434258" id="Path"></line>
                        <line x1="283.290804" y1="19.3351154" x2="283.290804" y2="33.8434258" id="Path"></line>
                        <line x1="286.935961" y1="18.0798221" x2="286.935961" y2="33.8434258" id="Path"></line>
                        <line x1="290.581118" y1="16.6445585" x2="290.581118" y2="33.8434258" id="Path"></line>
                        <line x1="294.226276" y1="14.7611687" x2="294.226276" y2="33.8434258" id="Path"></line>
                        <line x1="297.783185" y1="12.5187381" x2="297.783185" y2="33.8434258" id="Path"></line>
                        <line x1="329.748548" y1="31.9087444" x2="329.748548" y2="33.8434258" id="Path"></line>
                        <line x1="326.103391" y1="30.6444527" x2="326.103391" y2="33.8434258" id="Path"></line>
                        <line x1="322.458234" y1="29.1605971" x2="322.458234" y2="33.8434258" id="Path"></line>
                        <line x1="318.813077" y1="27.5291658" x2="318.813077" y2="33.8434258" id="Path"></line>
                        <line x1="315.16792" y1="25.5152975" x2="315.16792" y2="33.8434258" id="Path"></line>
                        <line x1="311.522762" y1="23.0847978" x2="311.522762" y2="33.8434258" id="Path"></line>
                        <line x1="307.877605" y1="20.0181029" x2="307.877605" y2="33.8434258" id="Path"></line>
                        <line x1="304.320695" y1="16.3890006" x2="304.320695" y2="33.8434258" id="Path"></line>
                        <line x1="225.706686" y1="3.91705484" x2="225.706686" y2="33.8434258" id="Path"></line>
                        <line x1="222.061529" y1="7.30499682" x2="222.061529" y2="33.8434258" id="Path"></line>
                        <line x1="218.416372" y1="10.0243489" x2="218.416372" y2="33.8434258" id="Path"></line>
                        <line x1="214.771215" y1="12.270379" x2="214.771215" y2="33.8434258" id="Path"></line>
                        <line x1="211.126058" y1="14.2329557" x2="211.126058" y2="33.8434258" id="Path"></line>
                        <line x1="207.4809" y1="15.998465" x2="207.4809" y2="33.8434258" id="Path"></line>
                        <line x1="203.835743" y1="17.4868198" x2="203.835743" y2="33.8434258" id="Path"></line>
                        <line x1="200.190586" y1="18.9598772" x2="200.190586" y2="33.8434258" id="Path"></line>
                        <line x1="196.545429" y1="19.9713106" x2="196.545429" y2="33.8434258" id="Path"></line>
                        <line x1="192.900272" y1="20.8864599" x2="192.900272" y2="33.8434258" id="Path"></line>
                        <line x1="189.255115" y1="21.7008257" x2="189.255115" y2="33.8434258" id="Path"></line>
                        <line x1="185.609957" y1="22.3298221" x2="185.609957" y2="33.8434258" id="Path"></line>
                        <line x1="181.9648" y1="22.7599513" x2="181.9648" y2="33.8434258" id="Path"></line>
                        <line x1="178.319643" y1="23.3610523" x2="178.319643" y2="33.8434258" id="Path"></line>
                        <line x1="174.674486" y1="23.3241584" x2="174.674486" y2="33.8434258" id="Path"></line>
                        <line x1="114.062943" y1="4.55325005" x2="114.062943" y2="42.4541076" id="Path"></line>
                        <line x1="43.174181" y1="10.5066695" x2="43.174181" y2="42.4541076" id="Path"></line>
                        <line x1="228.894398" y1="0.0521914038" x2="228.894398" y2="42.4541076" id="Path"></line>
                        <line x1="300.675538" y1="10.5066695" x2="300.675538" y2="42.4541076" id="Path"></line>
                        <path d="M114.033627,4.0970252 C124.093828,17.9376456 150.516715,23.2890642 172.572257,23.2890642" id="Path"></path>
                        <path d="M43.1934914,10.4742748 C51.0141905,16.5662714 61.9685721,21.3318865 74.0935822,21.3318865 C92.1644848,21.3318865 107.633891,16.0605547 114.007513,4.14471734" id="Path"></path>
                        <path d="M0,33.8011328 C18.0664002,33.8011328 39.0485659,19.6455643 43.1835861,10.4796739" id="Path"></path>
                        <path d="M228.913708,0 C218.727439,13.8433199 194.763772,23.2890642 172.431782,23.2890642" id="Path"></path>
                        <path d="M300.646223,10.4742748 C292.721968,16.5662714 281.634315,21.3318865 269.356222,21.3318865 C251.058398,21.3318865 235.394488,11.9428329 228.940723,0.0233961465" id="Path"></path>
                        <path d="M344,33.8020326 C324.202871,33.8020326 304.846978,21.2526996 300.655227,10.4796739" id="Path"></path>
                        <line x1="343.908151" y1="33.8772285" x2="0" y2="33.8772285" id="Path"></line>
                        <path d="M34.9171477,33.872221 C39.4798975,33.872221 43.1790837,37.6659962 43.1790837,42.3452255" id="Path"></path>
                        <path d="M51.4311143,33.872221 C46.8683645,33.872221 43.1691783,37.6659962 43.1691783,42.3452255" id="Path"></path>
                        <path d="M105.875246,33.872221 C110.437996,33.872221 114.137182,37.6659962 114.137182,42.3452255" id="Path"></path>
                        <path d="M122.389213,33.872221 C117.826463,33.872221 114.127277,37.6659962 114.127277,42.3452255" id="Path"></path>
                        <path d="M292.308646,33.872221 C296.929027,33.872221 300.674138,37.6659962 300.674138,42.3452255" id="Path"></path>
                        <path d="M309.029724,33.872221 C304.410244,33.872221 300.664232,37.6659962 300.664232,42.3452255" id="Path"></path>
                        <path d="M220.533809,33.872221 C225.153289,33.872221 228.8993,37.6659962 228.8993,42.3452255" id="Path"></path>
                        <path d="M237.254887,33.872221 C232.634506,33.872221 228.889395,37.6659962 228.889395,42.3452255" id="Path"></path>
                    </g>
                    <ellipse id="SUN" stroke="#FFC200" stroke-width="0.54" cx="271.206716" cy="13.454584" rx="13.4640291" ry="13.454584"></ellipse>
                </g>
            </g>
        </g>
    </g>
</svg>