<?xml version="1.0" encoding="UTF-8"?>
<svg width="344px" height="195px" viewBox="0 0 344 195" version="1.1" xmlns="http://www.w3.org/2000/svg" xmlns:xlink="http://www.w3.org/1999/xlink">
    <title>Group 30</title>
    <g id="Travel-App---Workspace" stroke="none" stroke-width="1" fill="none" fill-rule="evenodd">
        <g id="Group-25" transform="translate(0.000000, 0.034935)">
            <g id="Group-24" fill="#F2F6F9">
                <rect id="Rectangle" x="0" y="0" width="344" height="194"></rect>
            </g>
            <g id="EQUIPMENT" transform="translate(0.000000, 26.965065)">
                <g id="MONITOR" transform="translate(16.685633, 0.000000)">
                    <polygon id="Path" stroke="#AEE5F2" stroke-width="1.85625" fill="#FFFFFF" fill-rule="nonzero" points="97.1027842 121.64087 41.2925398 121.64087 53.6454049 89.0143985 109.455649 89.0143985"></polygon>
                    <polygon id="Path" stroke="#AEE5F2" stroke-width="1.85625" fill="#FFFFFF" fill-rule="nonzero" points="110.382114 89.0143985 98.0292491 121.64087 45.3072209 121.64087 57.660086 89.0143985"></polygon>
                    <rect id="Rectangle" stroke="#AEE5F2" stroke-width="1.85625" fill="#FFFFFF" fill-rule="nonzero" x="0" y="0" width="155.315661" height="92.1288838" rx="3.56709375"></rect>
                    <polygon id="Path" fill="#DCF5FF" fill-rule="nonzero" points="109.267268 89.0143985 105.805378 98.6109643 53.6021698 102.623681 58.7008149 89.0143985"></polygon>
                    <rect id="Rectangle" stroke="#AEE5F2" stroke-width="1.85625" fill="#FFFFFF" fill-rule="nonzero" x="3.71821239" y="0" width="155.315661" height="92.1288838" rx="3.56709375"></rect>
                    <rect id="Rectangle" fill="#3F4D79" fill-rule="nonzero" x="11.423312" y="7.2383232" width="141.650304" height="62.076724"></rect>
                    <rect id="Rectangle" stroke="#AEE5F2" stroke-width="0.928125" x="11.423312" y="7.2383232" width="141.650304" height="62.076724"></rect>
                    <line x1="22.7200071" y1="7.2383232" x2="22.7200071" y2="69.3119605" id="Path" stroke="#AEE5F2" stroke-width="0.5"></line>
                    <line x1="34.5880222" y1="7.2383232" x2="34.5880222" y2="69.3119605" id="Path" stroke="#AEE5F2" stroke-width="0.5"></line>
                    <line x1="46.4591256" y1="7.2383232" x2="46.4591256" y2="69.3119605" id="Path" stroke="#AEE5F2" stroke-width="0.5"></line>
                    <line x1="58.3271407" y1="7.2383232" x2="58.3271407" y2="69.3119605" id="Path" stroke="#AEE5F2" stroke-width="0.5"></line>
                    <line x1="70.1982441" y1="7.2383232" x2="70.1982441" y2="69.3119605" id="Path" stroke="#AEE5F2" stroke-width="0.5"></line>
                    <line x1="82.0662592" y1="7.2383232" x2="82.0662592" y2="69.3119605" id="Path" stroke="#AEE5F2" stroke-width="0.5"></line>
                    <line x1="93.9373626" y1="7.2383232" x2="93.9373626" y2="69.3119605" id="Path" stroke="#AEE5F2" stroke-width="0.5"></line>
                    <line x1="105.805378" y1="7.2383232" x2="105.805378" y2="69.3119605" id="Path" stroke="#AEE5F2" stroke-width="0.5"></line>
                    <line x1="117.673393" y1="7.2383232" x2="117.673393" y2="69.3119605" id="Path" stroke="#AEE5F2" stroke-width="0.5"></line>
                    <line x1="129.544496" y1="7.2383232" x2="129.544496" y2="69.3119605" id="Path" stroke="#AEE5F2" stroke-width="0.5"></line>
                    <line x1="141.412511" y1="7.2383232" x2="141.412511" y2="69.3119605" id="Path" stroke="#AEE5F2" stroke-width="0.5"></line>
                    <path d="M153.082881,44.2448293 C148.067617,44.2448293 148.780995,36.2193963 141.965302,36.2193963 C135.022992,36.2193963 128.920676,58.3881116 119.841321,58.3881116 C110.104175,58.3881116 106.169787,38.2720552 98.041602,38.2720552 C87.0599049,38.2720552 87.146375,53.7889211 74.9510089,53.7889211 C62.7556429,53.7889211 56.7984737,24.8201948 46.5394192,24.8201948 C37.2130061,24.8201948 34.612728,51.6745282 22.8157418,51.6745282 C16.5435746,51.6745282 15.4688753,44.4639854 11.2256661,44.4639854" id="Path" fill="#DCF5FF" fill-rule="nonzero"></path>
                    <path d="M11.5561053,44.4825056 C46.4869195,44.4825056 47.8426465,36.7441362 62.7587311,36.7441362 C75.8960031,36.7441362 80.6703855,50.9429791 91.1703208,50.9429791 C103.140247,50.9429791 109.146828,34.9445872 117.256484,34.9445872 C125.36614,34.9445872 129.414791,51.2886901 136.245925,51.2886901 C143.07706,51.2886901 145.417928,44.2756964 152.903764,44.2756964 L11.5561053,44.4825056 Z" id="Path" fill="#FFB000" fill-rule="nonzero"></path>
                    <path d="M11.1824311,44.1090143 C52.4657062,44.1090143 52.0951203,32.6882058 64.2132809,32.6882058 C76.1554133,32.6882058 82.0230242,54.2581003 92.5322242,54.2581003 C104.50215,54.2581003 107.831248,30.2404488 117.265748,30.2404488 C126.987453,30.2404488 130.474049,54.6254182 138.015473,54.6254182 C144.809549,54.6254182 145.427192,44.6368408 152.913029,44.6368408" id="Path" stroke="#FFFFFF" stroke-width="0.61875"></path>
                    <line x1="12.2169836" y1="74.4945382" x2="152.925382" y2="74.4945382" id="Path" stroke="#3CBFD4" stroke-width="0.928125" stroke-linecap="round"></line>
                    <path d="M11.9112502,73.3709776 L61.3597691,73.3709776 L61.3597691,75.6150121 L11.9112502,75.6150121 C11.3449993,75.6150121 10.8859624,75.1561998 10.8859624,74.5902261 L10.8859624,74.3957636 C10.8859624,73.8297899 11.3449993,73.3709776 11.9112502,73.3709776 Z" id="Path" fill="#FFB000" fill-rule="nonzero"></path>
                    <ellipse id="Oval" stroke="#FFB000" stroke-width="1.2375" fill="#FFFFFF" fill-rule="nonzero" cx="63.5524027" cy="74.6056596" rx="1.8591062" ry="1.8581964"></ellipse>
                </g>
                <polyline id="TABLE" stroke="#FFB000" stroke-width="1.546875" points="0 157.619504 191 157.619504 191 167 0.151322597 167"></polyline>
                <g id="EQUALIZER" transform="translate(21.095605, 116.905865)">
                    <polygon id="Path" stroke="#AEE5F2" stroke-width="1.85625" fill="#FFFFFF" fill-rule="nonzero" stroke-linejoin="round" points="162.03562 34.4105872 162.03562 38.8616158 53.5156998 38.8616158 53.5156998 34.4105872 0 1.50322533 108.523008 1.50322533 157.554618 31.6541597"></polygon>
                    <polygon id="Path" stroke="#AEE5F2" stroke-width="1.85625" fill="#FFFFFF" fill-rule="nonzero" stroke-linejoin="round" points="53.5156998 34.4105872 53.5156998 38.8616158 0 38.8616158 0 1.50322533"></polygon>
                    <line x1="40.8632777" y1="19.4771085" x2="59.1084594" y2="30.6941944" id="Path" stroke="#3CBFD4" stroke-width="1.2375" stroke-linecap="round" stroke-linejoin="round"></line>
                    <polygon id="Path" fill="#FFB000" fill-rule="nonzero" points="57.5056752 28.2124836 57.5056752 29.0582408 54.9424557 29.0582408 54.9424557 28.2124836 53.2809953 26.4561485 50.8413045 23.8787498 53.4076122 23.8787498"></polygon>
                    <polygon id="Path" fill="#DC9600" fill-rule="nonzero" points="57.5056752 28.2155703 57.5056752 29.0613275 54.9424557 29.0613275 53.2809953 28.0396281 50.8413045 26.5394895 50.8413045 23.8787498 53.2809953 26.4561485 54.9424557 28.2124836 54.9424557 28.2155703"></polygon>
                    <path d="M38.0746184,15.0476868 C38.0746184,15.5322995 37.012272,15.924311 35.7028683,15.924311 C34.3934646,15.924311 33.3311182,15.5322995 33.3311182,15.0476868 L33.9487615,10.5225773 L37.4353577,10.5225773 L38.0746184,15.0476868 Z" id="Path" stroke="#3CBFD4" stroke-width="1.2375" fill="#FFFFFF" fill-rule="nonzero" stroke-linejoin="round"></path>
                    <ellipse id="Oval" stroke="#3CBFD4" stroke-width="1.2375" fill="#FFB000" fill-rule="nonzero" stroke-linejoin="round" cx="35.6997801" cy="10.5503577" rx="1.74484219" ry="1"></ellipse>
                    <path d="M29.7827577,10.3682421 C29.7827577,10.8528547 28.7204113,11.2448663 27.4110076,11.2448663 C26.1016039,11.2448663 25.0392575,10.8528547 25.0392575,10.3682421 L25.6569008,5.84313254 L29.1465852,5.84313254 L29.7827577,10.3682421 Z" id="Path" stroke="#3CBFD4" stroke-width="1.2375" fill="#FFFFFF" fill-rule="nonzero" stroke-linejoin="round"></path>
                    <ellipse id="Oval" stroke="#3CBFD4" stroke-width="1.2375" fill="#FFB000" fill-rule="nonzero" stroke-linejoin="round" cx="27.4079194" cy="5.87091289" rx="1.74484219" ry="1"></ellipse>
                    <path d="M22.1641282,5.44186089 C22.1641282,5.92647358 21.1017818,6.31848511 19.7923781,6.31848511 C18.4829744,6.31848511 17.420628,5.92647358 17.420628,5.44186089 L18.0382712,0.916751382 L21.5217792,0.916751382 L22.1641282,5.44186089 Z" id="Path" stroke="#3CBFD4" stroke-width="1.2375" fill="#FFFFFF" fill-rule="nonzero" stroke-linejoin="round"></path>
                    <ellipse id="Oval" stroke="#3CBFD4" stroke-width="1.2375" fill="#FFB000" fill-rule="nonzero" stroke-linejoin="round" cx="19.7892899" cy="0.944531727" rx="1.74484219" ry="1"></ellipse>
                    <path d="M55.7762741,15.0476868 C55.7762741,15.5322995 54.7170159,15.924311 53.4076122,15.924311 C52.0982085,15.924311 51.0358621,15.5322995 51.0358621,15.0476868 L51.6535054,10.5225773 L55.1401015,10.5225773 L55.7762741,15.0476868 Z" id="Path" stroke="#3CBFD4" stroke-width="1.2375" fill="#FFFFFF" fill-rule="nonzero" stroke-linejoin="round"></path>
                    <ellipse id="Oval" stroke="#3CBFD4" stroke-width="1.2375" fill="#FFB000" fill-rule="nonzero" stroke-linejoin="round" cx="53.404524" cy="10.5503577" rx="1.74484219" ry="1"></ellipse>
                    <path d="M47.4875016,10.3682421 C47.4875016,10.8528547 46.4251552,11.2448663 45.1157515,11.2448663 C43.8063478,11.2448663 42.7440014,10.8528547 42.7440014,10.3682421 L43.3616447,5.84313254 L46.8451526,5.84313254 L47.4875016,10.3682421 Z" id="Path" stroke="#3CBFD4" stroke-width="1.2375" fill="#FFFFFF" fill-rule="nonzero" stroke-linejoin="round"></path>
                    <ellipse id="Oval" stroke="#3CBFD4" stroke-width="1.2375" fill="#FFB000" fill-rule="nonzero" stroke-linejoin="round" cx="45.1126633" cy="5.87091289" rx="1.74484219" ry="1"></ellipse>
                    <path d="M39.8657839,5.44186089 C39.8657839,5.92647358 38.8065257,6.31848511 37.4940338,6.31848511 C36.1815418,6.31848511 35.1222837,5.92647358 35.1222837,5.44186089 L35.7399269,0.916751382 L39.2265231,0.916751382 L39.8657839,5.44186089 Z" id="Path" stroke="#3CBFD4" stroke-width="1.2375" fill="#FFFFFF" fill-rule="nonzero" stroke-linejoin="round"></path>
                    <ellipse id="Oval" stroke="#3CBFD4" stroke-width="1.2375" fill="#FFB000" fill-rule="nonzero" stroke-linejoin="round" cx="37.4940338" cy="0.944531727" rx="1.74484219" ry="1"></ellipse>
                    <path d="M71.9122041,15.0476868 C71.9122041,15.5322995 70.8498577,15.924311 69.540454,15.924311 C68.2310503,15.924311 67.1687039,15.5322995 67.1687039,15.0476868 L67.7863472,10.5225773 L71.2729433,10.5225773 L71.9122041,15.0476868 Z" id="Path" stroke="#3CBFD4" stroke-width="1.2375" fill="#FFFFFF" fill-rule="nonzero" stroke-linejoin="round"></path>
                    <ellipse id="Oval" stroke="#3CBFD4" stroke-width="1.2375" fill="#FFB000" fill-rule="nonzero" stroke-linejoin="round" cx="69.540454" cy="10.5503577" rx="1.74484219" ry="1"></ellipse>
                    <path d="M63.6203434,10.3682421 C63.6203434,10.8528547 62.557997,11.2448663 61.2485933,11.2448663 C59.9391896,11.2448663 58.8768432,10.8528547 58.8768432,10.3682421 L59.4944865,5.84313254 L62.9810827,5.84313254 L63.6203434,10.3682421 Z" id="Path" stroke="#3CBFD4" stroke-width="1.2375" fill="#FFFFFF" fill-rule="nonzero" stroke-linejoin="round"></path>
                    <ellipse id="Oval" stroke="#3CBFD4" stroke-width="1.2375" fill="#FFB000" fill-rule="nonzero" stroke-linejoin="round" cx="61.2485933" cy="5.87091289" rx="1.74484219" ry="1"></ellipse>
                    <path d="M56.0017139,5.44186089 C56.0017139,5.92647358 54.9393675,6.31848511 53.6299638,6.31848511 C52.3205601,6.31848511 51.2582137,5.92647358 51.2582137,5.44186089 L51.8758569,0.916751382 L55.3624531,0.916751382 L56.0017139,5.44186089 Z" id="Path" stroke="#3CBFD4" stroke-width="1.2375" fill="#FFFFFF" fill-rule="nonzero" stroke-linejoin="round"></path>
                    <ellipse id="Oval" stroke="#3CBFD4" stroke-width="1.2375" fill="#FFB000" fill-rule="nonzero" stroke-linejoin="round" cx="53.6299638" cy="0.944531727" rx="1.74484219" ry="1"></ellipse>
                    <path d="M88.2704857,15.0476868 C88.2704857,15.5322995 87.2112275,15.924311 85.8987356,15.924311 C84.5862437,15.924311 83.5269855,15.5322995 83.5269855,15.0476868 L84.1446288,10.5225773 L87.6312249,10.5225773 L88.2704857,15.0476868 Z" id="Path" stroke="#3CBFD4" stroke-width="1.2375" fill="#FFFFFF" fill-rule="nonzero" stroke-linejoin="round"></path>
                    <ellipse id="Oval" stroke="#3CBFD4" stroke-width="1.2375" fill="#FFB000" fill-rule="nonzero" stroke-linejoin="round" cx="85.8987356" cy="10.5503577" rx="1.74484219" ry="1"></ellipse>
                    <path d="M79.978625,10.3682421 C79.978625,10.8528547 78.9193668,11.2448663 77.6099631,11.2448663 C76.3005594,11.2448663 75.238213,10.8528547 75.238213,10.3682421 L75.8558563,5.84313254 L79.3424525,5.84313254 L79.978625,10.3682421 Z" id="Path" stroke="#3CBFD4" stroke-width="1.2375" fill="#FFFFFF" fill-rule="nonzero" stroke-linejoin="round"></path>
                    <ellipse id="Oval" stroke="#3CBFD4" stroke-width="1.2375" fill="#FFB000" fill-rule="nonzero" stroke-linejoin="round" cx="77.6068749" cy="5.87091289" rx="1.74484219" ry="1"></ellipse>
                    <path d="M72.3599955,5.44186089 C72.3599955,5.92647358 71.2976491,6.31848511 69.9882454,6.31848511 C68.6788417,6.31848511 67.6164953,5.92647358 67.6164953,5.44186089 L68.2341385,0.916751382 L71.7207347,0.916751382 L72.3599955,5.44186089 Z" id="Path" stroke="#3CBFD4" stroke-width="1.2375" fill="#FFFFFF" fill-rule="nonzero" stroke-linejoin="round"></path>
                    <ellipse id="Oval" stroke="#3CBFD4" stroke-width="1.2375" fill="#FFB000" fill-rule="nonzero" stroke-linejoin="round" cx="69.9882454" cy="0.944531727" rx="1.74484219" ry="1"></ellipse>
                    <path d="M103.958624,15.0476868 C103.958624,15.5322995 102.896278,15.924311 101.586874,15.924311 C100.277471,15.924311 99.2151242,15.5322995 99.2151242,15.0476868 L99.8327674,10.5225773 L103.322452,10.5225773 L103.958624,15.0476868 Z" id="Path" stroke="#3CBFD4" stroke-width="1.2375" fill="#FFFFFF" fill-rule="nonzero" stroke-linejoin="round"></path>
                    <ellipse id="Oval" stroke="#3CBFD4" stroke-width="1.2375" fill="#FFB000" fill-rule="nonzero" stroke-linejoin="round" cx="101.583786" cy="10.5503577" rx="1.74484219" ry="1"></ellipse>
                    <path d="M95.6667637,10.3682421 C95.6667637,10.8528547 94.6044173,11.2448663 93.2950136,11.2448663 C91.9856099,11.2448663 90.9232635,10.8528547 90.9232635,10.3682421 L91.5409067,5.84313254 L95.0275029,5.84313254 L95.6667637,10.3682421 Z" id="Path" stroke="#3CBFD4" stroke-width="1.2375" fill="#FFFFFF" fill-rule="nonzero" stroke-linejoin="round"></path>
                    <ellipse id="Oval" stroke="#3CBFD4" stroke-width="1.2375" fill="#FFB000" fill-rule="nonzero" stroke-linejoin="round" cx="93.2950136" cy="5.87091289" rx="1.74484219" ry="1"></ellipse>
                    <path d="M88.0481341,5.44186089 C88.0481341,5.92647358 86.9857877,6.31848511 85.676384,6.31848511 C84.3669803,6.31848511 83.3046339,5.92647358 83.3046339,5.44186089 L83.9222772,0.916751382 L87.4088734,0.916751382 L88.0481341,5.44186089 Z" id="Path" stroke="#3CBFD4" stroke-width="1.2375" fill="#FFFFFF" fill-rule="nonzero" stroke-linejoin="round"></path>
                    <ellipse id="Oval" stroke="#3CBFD4" stroke-width="1.2375" fill="#FFB000" fill-rule="nonzero" stroke-linejoin="round" cx="85.6732958" cy="0.944531727" rx="1.74484219" ry="1"></ellipse>
                    <path d="M119.708527,15.0476868 C119.708527,15.5322995 118.646181,15.924311 117.336777,15.924311 C116.027374,15.924311 114.965027,15.5322995 114.965027,15.0476868 L115.58267,10.5225773 L119.072355,10.5225773 L119.708527,15.0476868 Z" id="Path" stroke="#3CBFD4" stroke-width="1.2375" fill="#FFFFFF" fill-rule="nonzero" stroke-linejoin="round"></path>
                    <ellipse id="Oval" stroke="#3CBFD4" stroke-width="1.2375" fill="#FFB000" fill-rule="nonzero" stroke-linejoin="round" cx="117.333689" cy="10.5503577" rx="1.74484219" ry="1"></ellipse>
                    <path d="M111.416667,10.3682421 C111.416667,10.8528547 110.35432,11.2448663 109.044917,11.2448663 C107.735513,11.2448663 106.673166,10.8528547 106.673166,10.3682421 L107.29081,5.84313254 L110.777406,5.84313254 L111.416667,10.3682421 Z" id="Path" stroke="#3CBFD4" stroke-width="1.2375" fill="#FFFFFF" fill-rule="nonzero" stroke-linejoin="round"></path>
                    <ellipse id="Oval" stroke="#3CBFD4" stroke-width="1.2375" fill="#FFB000" fill-rule="nonzero" stroke-linejoin="round" cx="109.044917" cy="5.87091289" rx="1.74484219" ry="1"></ellipse>
                    <path d="M103.798037,5.44186089 C103.798037,5.92647358 102.735691,6.31848511 101.426287,6.31848511 C100.116883,6.31848511 99.0545369,5.92647358 99.0545369,5.44186089 L99.6721802,0.916751382 L103.158776,0.916751382 L103.798037,5.44186089 Z" id="Path" stroke="#3CBFD4" stroke-width="1.2375" fill="#FFFFFF" fill-rule="nonzero" stroke-linejoin="round"></path>
                    <ellipse id="Oval" stroke="#3CBFD4" stroke-width="1.2375" fill="#FFB000" fill-rule="nonzero" stroke-linejoin="round" cx="101.423199" cy="0.944531727" rx="1.74484219" ry="1"></ellipse>
                    <line x1="53.518788" y1="34.6575236" x2="162.03562" y2="34.6575236" id="Path" stroke="#AEE5F2" stroke-width="1.85625" stroke-linejoin="round"></line>
                    <line x1="57.2246475" y1="19.4771085" x2="75.466741" y2="30.6941944" id="Path" stroke="#3CBFD4" stroke-width="1.2375" stroke-linecap="round" stroke-linejoin="round"></line>
                    <polygon id="Path" fill="#FFB000" fill-rule="nonzero" points="65.0409229 24.3911428 60.9397717 20.0543223 63.5060794 20.0543223 67.6041424 24.3911428"></polygon>
                    <polygon id="Path" fill="#DC9600" fill-rule="nonzero" points="65.0378347 24.3911428 67.6041424 24.3911428 67.6041424 25.2399867 65.0378347 25.2399867 63.3794626 24.2121139 60.9366835 22.7119753 60.9366835 20.0543223"></polygon>
                    <line x1="73.3574893" y1="19.4771085" x2="91.6026711" y2="30.6941944" id="Path" stroke="#3CBFD4" stroke-width="1.2375" stroke-linecap="round" stroke-linejoin="round"></line>
                    <polygon id="Path" fill="#FFB000" fill-rule="nonzero" points="87.4366673 28.2124836 83.3355161 23.8756631 85.9018238 23.8756631 89.9998868 28.2124836"></polygon>
                    <polygon id="Path" fill="#DC9600" fill-rule="nonzero" points="87.4366673 28.2124836 90.002975 28.2124836 90.002975 29.0582408 87.4366673 29.0582408 85.7782952 28.0334547 83.3355161 26.5333161 83.3355161 23.8756631"></polygon>
                    <line x1="89.2679796" y1="19.4771085" x2="107.513161" y2="30.6941944" id="Path" stroke="#3CBFD4" stroke-width="1.2375" stroke-linecap="round" stroke-linejoin="round"></line>
                    <polygon id="Path" fill="#FFB000" fill-rule="nonzero" points="103.344069 28.2124836 99.2460063 23.8756631 101.809226 23.8756631 105.910377 28.2124836"></polygon>
                    <polygon id="Path" fill="#DC9600" fill-rule="nonzero" points="103.344069 28.2124836 105.910377 28.2124836 105.910377 29.0582408 103.344069 29.0582408 101.685697 28.0334547 99.2429181 26.5333161 99.2429181 23.8756631"></polygon>
                    <line x1="105.851701" y1="19.4771085" x2="124.096883" y2="30.6941944" id="Path" stroke="#3CBFD4" stroke-width="1.2375" stroke-linecap="round" stroke-linejoin="round"></line>
                    <polygon id="Path" fill="#FFB000" fill-rule="nonzero" points="119.930879 28.2124836 115.829728 23.8756631 118.396035 23.8756631 122.494098 28.2124836"></polygon>
                    <polygon id="Path" fill="#DC9600" fill-rule="nonzero" points="119.930879 28.2124836 122.497187 28.2124836 122.497187 29.0582408 119.930879 29.0582408 118.272507 28.0334547 115.829728 26.5333161 115.829728 23.8756631"></polygon>
                    <line x1="121.601604" y1="19.4771085" x2="139.846786" y2="30.6941944" id="Path" stroke="#3CBFD4" stroke-width="1.2375" stroke-linecap="round" stroke-linejoin="round"></line>
                    <polygon id="Path" fill="#FFB000" fill-rule="nonzero" points="135.680782 28.2124836 131.579631 23.8756631 134.145938 23.8756631 138.244001 28.2124836"></polygon>
                    <polygon id="Path" fill="#DC9600" fill-rule="nonzero" points="135.680782 28.2124836 138.24709 28.2124836 138.24709 29.0582408 135.680782 29.0582408 134.02241 28.0334547 131.579631 26.5333161 131.579631 23.8756631"></polygon>
                </g>
            </g>
        </g>
    </g>
</svg>